# xmcd
#
# Track frame offsets: 
#        182
#        11765
#        36025
#        51710
#        66827
#        79227
#        98977
#        112530
#        126887
#        137092
#        150282
#
# Disc length: 2164 seconds
#
# Revision: 2
# Processed by: cddbd v1.5.2PL0 Copyright (c) Steve Scherf et al.
# Submitted via: ExactAudioCopyFreeDBPlugin 1.0
#
DISCID=8b08720b
DTITLE=Tony Rice - Cold On The Shoulder
DYEAR=1983
DGENRE=Country
TTITLE0=Cold On The Shoulder
TTITLE1=Wayfaring Stranger
TTITLE2=John Hardy
TTITLE3=Fare Thee Well
TTITLE4=Bitter Green
TTITLE5=Muleskinner Blues
TTITLE6=Song For Life
TTITLE7=Why Don't You Tell Me So
TTITLE8=If You Only Knew
TTITLE9=Likes Of Me
TTITLE10=I Think It's Gonna Rain Today
EXTD=
EXTT0=
EXTT1=
EXTT2=
EXTT3=
EXTT4=
EXTT5=
EXTT6=
EXTT7=
EXTT8=
EXTT9=
EXTT10=
PLAYORDER=
